<svg width="97" height="96" viewBox="0 0 97 96" fill="none" xmlns="http://www.w3.org/2000/svg">
<g clip-path="url(#clip0_2013_527)">
<path d="M31.5069 0.44521C31.5069 0.963722 31.5069 1.34623 31.5069 1.72874C31.5069 9.01342 31.524 16.2981 31.4956 23.5828C31.4899 25.2545 31.9831 26.5777 33.5758 27.2974C35.0269 27.9547 36.339 27.575 37.7561 26.1668C39.0541 24.8776 40.3606 23.5913 41.6983 22.2709C43.0756 23.6366 44.4275 24.974 45.7765 26.3142C47.5393 28.0652 49.4013 28.0822 51.1528 26.3482C52.5075 25.008 53.8593 23.6621 55.2622 22.2709C56.6027 23.5913 57.9517 24.8748 59.2441 26.2122C60.372 27.3767 61.636 27.9717 63.2401 27.3654C64.7535 26.7902 65.4564 25.5803 65.4564 23.6423C65.4564 16.3208 65.4564 9.00208 65.4564 1.68057V0.44521C65.9041 0.44521 66.2471 0.44521 66.5928 0.44521C71.7565 0.44521 76.9202 0.439543 82.0811 0.44521C90.093 0.456544 96.0049 6.36985 96.0105 14.3912C96.019 25.1411 96.0105 35.8911 96.0105 46.641V47.8678C88.9679 39.1948 80.0802 34.4885 69.0783 34.4375C58.0849 34.3865 49.0385 38.8038 42.1716 47.3947C30.7956 61.6297 32.7341 83.495 48.2847 95.4265C47.8794 95.4576 47.5875 95.4973 47.2928 95.4973C36.4354 95.5002 25.5781 95.5143 14.7235 95.4973C6.91849 95.4832 0.95843 89.5132 0.955595 81.7072C0.947093 59.2156 0.947093 36.7269 0.955595 14.2354C0.95843 6.41802 6.90716 0.467877 14.715 0.448043C19.9496 0.433876 25.1841 0.44521 30.4158 0.44521C30.7304 0.44521 31.045 0.44521 31.5041 0.44521H31.5069Z" fill="#3E1A51"/>
<path d="M68.9309 41.1838C84.0167 41.2575 96.0842 53.4666 96.0077 68.58C95.934 83.4865 83.6398 95.5908 68.6617 95.5001C53.6694 95.4094 41.6217 83.1748 41.6897 68.0983C41.7549 53.2484 54.0406 41.1101 68.9281 41.181L68.9309 41.1838ZM65.53 70.3707C64.0166 68.8661 62.6676 67.5203 61.3129 66.1801C59.7315 64.616 57.6484 64.5282 56.2399 65.9591C54.8597 67.3644 54.9419 69.413 56.4695 70.9544C58.5582 73.0624 60.6611 75.1563 62.7611 77.2502C64.5126 78.9984 66.3802 79.0097 68.1317 77.2643C72.4848 72.9236 76.8295 68.58 81.1684 64.2279C82.7555 62.6355 82.8547 60.5728 81.4405 59.1561C80.0235 57.7365 77.9518 57.83 76.3703 59.4111C73.4711 62.3068 70.5803 65.2082 67.6924 68.1153C66.9754 68.8378 66.2839 69.5858 65.53 70.3735V70.3707Z" fill="#F7C531"/>
<path d="M58.5897 15.8078C55.4042 13.2606 54.5512 13.3144 51.6972 16.1903C50.6543 17.2415 49.617 18.2955 48.5032 19.4204C47.2081 18.1227 45.9667 16.8817 44.7254 15.6378C42.5517 13.4589 40.9901 13.4419 38.7455 15.567C38.6548 15.652 38.5499 15.7256 38.3516 15.89V0.496094H58.5925V15.8078H58.5897Z" fill="#3E1A51"/>
</g>
<defs>
<clipPath id="clip0_2013_527">
<rect width="95.0663" height="95.0663" fill="white" transform="translate(0.947266 0.439453)"/>
</clipPath>
</defs>
</svg>
