<svg width="121" height="85" viewBox="0 0 121 85" fill="none" xmlns="http://www.w3.org/2000/svg">
<path d="M81.0137 58.2967C79.5678 54.0974 76.1921 51.7963 71.9633 50.0909C63.2654 46.5837 54.6827 42.8517 45.9782 39.3533C43.1294 38.2085 40.0566 37.4931 36.8916 36.5207V0.975745H60.4725C60.4725 1.35829 60.4725 1.74668 60.4725 2.13215C60.4725 6.2117 60.4693 10.2942 60.4725 14.3737C60.4758 16.8384 62.307 17.8225 64.8298 16.7216C67.2932 15.644 69.7798 14.6015 72.2004 13.448C73.2082 12.9691 73.9954 12.9311 75.0262 13.4276C77.4765 14.6102 79.9762 15.717 82.5188 16.7245C83.3059 17.0369 84.3367 17.1129 85.193 16.9785C86.0658 16.8442 86.6224 16.1638 86.6487 15.2848C86.708 13.2115 86.7969 11.1381 86.82 9.06183C86.8496 6.37523 86.8266 3.69155 86.8266 0.949463H110.378V45.0564C100.537 49.4923 90.861 53.8551 81.0137 58.2938V58.2967ZM94.7769 38.2348C93.0511 38.2348 91.3254 38.2144 89.5996 38.2407C87.8673 38.2699 86.8035 39.1751 86.8134 40.5593C86.82 41.9143 87.9364 42.8634 89.6293 42.8721C92.9984 42.8926 96.3676 42.8926 99.7368 42.8721C101.403 42.8604 102.563 41.8647 102.556 40.5389C102.549 39.2189 101.4 38.2669 99.7104 38.2407C98.067 38.2144 96.4236 38.2348 94.7802 38.2348H94.7769Z" fill="#3E1A51"/>
<path d="M21.0723 73.2074V42.3933C29.0358 41.0909 36.8412 40.463 44.4688 43.7833C53.529 47.7256 62.7243 51.4197 71.8405 55.2598C75.0845 56.6264 76.1483 59.4707 74.6563 62.4318C73.1051 65.5068 69.5515 67.0429 66.4063 65.7901C60.4946 63.4364 54.6455 60.9513 48.77 58.5217C47.7293 58.0924 46.6984 57.6339 45.6445 57.2338C44.1065 56.6498 42.6245 57.1229 42.0185 58.3523C41.4224 59.5583 41.9691 60.8228 43.4347 61.439C50.2619 64.2979 57.0892 67.1509 63.9329 69.9806C67.8653 71.6072 71.6033 71.0319 74.9297 68.7658C76.5995 67.6298 77.9136 66.088 79.4022 64.7417C79.8237 64.3621 80.2387 63.927 80.7558 63.6905C90.2507 59.3744 99.749 55.067 109.27 50.7948C114.102 48.625 119.5 50.7685 120.751 55.2919C121.624 58.4487 119.938 61.5937 116.443 63.2115C108.621 66.8326 100.816 70.4829 92.9448 74.0134C86.4666 76.919 79.9588 79.7809 73.3587 82.4558C68.8072 84.3014 63.9889 85.376 58.8841 84.8708C55.2119 84.5058 51.7571 83.4574 48.411 82.1492C42.6706 79.8977 36.9565 77.5907 31.2819 75.2166C28.0675 73.8733 24.7905 72.968 21.0723 73.2104V73.2074Z" fill="#F7C531"/>
<path d="M15.7012 77.8391H0.103516V38.3314H15.7012V77.8391Z" fill="#F7C531"/>
<path d="M81.4475 0.975952V11.0653C79.6921 10.2973 77.9861 9.68988 76.4448 8.84302C74.5181 7.78298 72.7891 7.76254 70.8525 8.83134C69.3079 9.68404 67.592 10.2914 65.8037 11.0741V0.975952H81.4475Z" fill="#3E1A51"/>
</svg>
