<svg width="107" height="107" viewBox="0 0 107 107" fill="none" xmlns="http://www.w3.org/2000/svg">
<g clip-path="url(#clip0_2013_507)">
<path d="M51.8769 91.1726C53.3326 96.8815 51.937 101.605 46.8357 104.704C42.7185 107.206 38.44 106.919 34.4747 104.173C30.3955 101.349 29.0411 96.9573 30.2531 91.4285C28.5316 90.8756 26.7214 90.547 25.1486 89.7477C18.4935 86.3799 16.9808 77.5116 22.0663 72.0586C23.4113 70.618 24.8828 69.2942 26.2119 67.8378C26.5347 67.4839 26.7404 66.7762 26.6328 66.3181C22.3764 47.9498 18.0821 29.5909 13.7814 11.2289C13.2212 8.8404 11.9491 7.83889 9.51866 7.82626C7.89838 7.81994 6.28127 7.84205 4.66099 7.81994C2.37931 7.7915 0.692577 6.13285 0.721058 3.98451C0.752705 1.87408 2.41096 0.262816 4.65466 0.269135C7.01862 0.275453 9.42372 0.117487 11.7402 0.483969C16.4681 1.22957 19.5346 4.10456 20.8448 8.68875C21.7435 11.8291 22.4366 15.0264 23.2246 18.1952C23.3005 18.4985 23.3954 18.7986 23.503 19.1777H31.8734C29.2436 33.5685 33.4557 45.2106 46.1141 52.7867C56.7599 59.1591 67.9119 58.7863 78.1874 51.8326C89.7002 44.0417 93.4281 32.7881 90.8585 19.1841C92.6971 19.1841 94.58 19.1841 96.463 19.1841C98.5959 19.1841 100.726 19.1746 102.859 19.1841C105.881 19.1999 107.501 21.3514 106.735 24.3559C105.083 30.8388 103.422 37.3218 101.764 43.8047C100.143 50.136 98.5168 56.4642 96.9123 62.7955C95.3585 68.9246 91.1971 72.1787 84.8679 72.1787C67.8518 72.1787 50.8357 72.185 33.8196 72.1629C32.9684 72.1629 32.3418 72.3525 31.7532 72.997C30.6076 74.2449 29.3924 75.4328 28.1645 76.6018C26.8195 77.8844 26.1423 79.3535 26.8923 81.1638C27.6582 83.012 29.1962 83.5523 31.1107 83.5491C52.3136 83.527 73.5133 83.5333 94.7161 83.5396C95.2288 83.5396 95.7509 83.5207 96.2478 83.6186C98.1529 84.0009 99.463 85.7954 99.27 87.6973C99.0801 89.5992 97.4946 91.0683 95.5009 91.0968C92.7794 91.1347 90.0578 91.1062 87.2382 91.1062C88.7002 97.0742 87.197 101.933 81.7507 104.96C77.7253 107.2 73.5386 106.887 69.8075 104.154C65.3771 100.913 64.2695 96.4329 65.6366 91.1726H51.8864H51.8769ZM76.5798 91.1126C74.5164 91.081 72.7854 92.7554 72.7506 94.8153C72.7158 96.8878 74.3645 98.6128 76.431 98.6697C78.545 98.7265 80.314 97.0174 80.3203 94.9069C80.3298 92.8439 78.6526 91.141 76.5798 91.1126ZM37.4305 94.9164C37.4494 96.9952 39.1298 98.6665 41.2027 98.6665C43.2628 98.6665 44.978 96.9731 44.997 94.9196C45.0192 92.8218 43.2597 91.0841 41.1425 91.1094C39.0792 91.1315 37.4115 92.8407 37.4305 94.9164Z" fill="#3E1A51"/>
<path d="M61.3749 49.4663C48.9222 49.5074 38.6499 39.3059 38.6309 26.8834C38.6119 14.3598 48.7481 4.06989 61.1281 4.04778C73.8846 4.0225 84.0683 14.0818 84.1126 26.7507C84.1537 39.2333 73.9542 49.4253 61.3749 49.4663ZM57.5615 28.8928C56.0046 27.3542 54.495 25.863 52.9824 24.3686C51.1975 22.6057 48.9158 22.4856 47.3209 24.0716C45.7259 25.6608 45.8304 27.9418 47.5994 29.7205C49.9349 32.0679 52.2767 34.4058 54.628 36.7405C56.5267 38.6267 58.6312 38.6267 60.5394 36.7405C62.7515 34.5511 64.9509 32.3428 67.1535 30.1439C69.2453 28.0555 71.3466 25.9767 73.4194 23.8694C74.546 22.7226 74.834 21.3293 74.2643 19.8381C73.7137 18.3848 72.5934 17.5729 71.0428 17.4275C69.7326 17.3043 68.6946 17.8572 67.7769 18.7734C64.4066 22.1413 61.011 25.4838 57.5584 28.9022L57.5615 28.8928Z" fill="#F7C531"/>
</g>
<defs>
<clipPath id="clip0_2013_507">
<rect width="106.204" height="106.204" fill="white" transform="translate(0.72168 0.240723)"/>
</clipPath>
</defs>
</svg>
