<svg width="123" height="106" viewBox="0 0 123 106" fill="none" xmlns="http://www.w3.org/2000/svg">
<path d="M0.285156 35.7933C0.600864 35.8188 0.916572 35.8667 1.23228 35.8699C3.38484 35.8986 3.36251 35.9018 4.14381 37.9778C7.39656 46.5976 12.5467 53.996 18.8035 60.6737C22.2667 64.3697 26.0329 67.7277 30.2009 70.6233C31.8464 71.7649 33.0869 71.8255 34.6846 70.6551C46.7006 61.86 56.0028 50.9282 61.1881 36.7883C61.4273 36.1377 61.7079 35.8125 62.4509 35.8603C63.4746 35.9241 64.5078 35.8762 65.6559 35.8762C65.6782 36.3833 65.7132 36.801 65.7164 37.2188C65.7196 44.2632 65.7164 51.3077 65.7196 58.3489C65.7196 61.1584 66.8868 62.3288 69.7027 62.3288C81.1224 62.3319 92.5421 62.3287 103.959 62.3383C104.504 62.3383 105.078 62.383 105.595 62.5488C111 64.2868 116.399 66.0567 121.798 67.817C122.024 67.8903 122.238 67.9987 122.477 68.0976V92.1998C119.814 92.1998 117.202 92.2349 114.594 92.152C114.307 92.1424 113.908 91.5078 113.79 91.0964C112.511 86.5904 109.877 83.14 105.824 80.8056C96.5283 75.4514 84.4644 80.2699 81.4731 90.5766C81.0937 91.8841 80.577 92.2508 79.2217 92.2413C68.2006 92.1743 57.1796 92.1934 46.1585 92.2221C45.205 92.2221 44.7298 92.0372 44.4396 90.9976C42.3764 83.5769 35.788 78.5797 28.2365 78.5925C20.6754 78.6084 14.1221 83.6311 12.0174 91.0199C11.9121 91.393 11.7878 91.7629 11.673 92.1424H0.285156V35.7933Z" fill="#3E1A51"/>
<path d="M32.4776 64.3314C28.7019 61.5251 25.3662 58.4063 22.3271 54.975C16.74 48.6736 12.0746 41.7982 9.4915 33.6886C7.3804 27.0651 7.17312 20.4895 10.2887 14.0637C14.849 4.65941 24.5658 -0.771402 35.0128 0.245879C45.0868 1.22489 53.7353 8.61692 56.2514 18.5123C57.7916 24.5682 56.8381 30.4518 54.5612 36.1409C50.2497 46.926 43.0937 55.5873 34.2475 62.9474C33.699 63.4034 33.125 63.8244 32.4744 64.3282L32.4776 64.3314ZM47.6858 25.7385C47.6762 17.3164 40.8582 10.5048 32.4361 10.4984C24.046 10.492 17.2439 17.3356 17.2343 25.7863C17.2279 34.0808 24.1353 40.9913 32.4234 40.985C40.8359 40.9786 47.6922 34.1287 47.6826 25.7385H47.6858Z" fill="#F7C531"/>
<path d="M100.09 55.8233H72.2188V35.9432C72.6142 35.9177 72.965 35.8763 73.3126 35.8763C78.4053 35.8731 83.4981 35.8763 88.5909 35.8667C89.216 35.8667 89.6879 35.9209 90.0387 36.5938C93.2851 42.8346 96.5729 49.0531 99.848 55.278C99.9181 55.4119 99.9724 55.5554 100.094 55.8201L100.09 55.8233Z" fill="#3E1A51"/>
<path d="M28.1498 105.817C22.3172 105.737 17.7665 101.043 17.8749 95.2197C17.9802 89.5401 22.6807 84.9672 28.3507 85.0309C34.0558 85.0947 38.7404 89.8718 38.6575 95.545C38.5745 101.307 33.8804 105.896 28.153 105.82L28.1498 105.817Z" fill="#3E1A51"/>
<path d="M97.4157 105.817C91.583 105.734 87.0675 101.072 87.1536 95.2102C87.2333 89.5593 91.9593 84.9704 97.6357 85.031C103.338 85.0916 107.997 89.8559 107.933 95.5546C107.866 101.292 103.146 105.9 97.4188 105.82L97.4157 105.817Z" fill="#3E1A51"/>
<path d="M32.4941 16.9369C37.3158 16.9369 41.2892 20.9327 41.2637 25.7608C41.2382 30.5984 37.252 34.5623 32.4335 34.54C27.5862 34.5177 23.6606 30.5538 23.6798 25.7066C23.6989 20.8466 27.6277 16.9401 32.4941 16.9369Z" fill="#F7C531"/>
</svg>
