<svg width="89" height="112" viewBox="0 0 89 112" fill="none" xmlns="http://www.w3.org/2000/svg">
<g clip-path="url(#clip0_2013_529)">
<path d="M5.61186 111.517C3.70876 110.76 3.08213 109.334 3.08793 107.332C3.13435 93.2029 3.11114 79.0742 3.11404 64.9425C3.11404 64.6005 3.14595 64.2585 3.34032 63.8846C4.38471 66.2496 5.42909 68.6116 6.46768 70.9766C9.06994 76.8889 11.6751 82.7984 14.2687 88.7136C16.1224 92.9392 19.3571 95.0288 23.9669 95.023C29.2846 95.0201 34.6022 95.023 39.9199 95.023H41.1558C41.6228 98.4719 42.0783 101.825 42.5309 105.181C42.6092 105.755 42.6324 106.338 42.7659 106.897C43.2764 109.033 42.4874 110.531 40.5784 111.514H5.61186V111.517Z" fill="#3E1A51"/>
<path d="M10.1902 31.6365C2.15421 27.4254 -0.395827 19.1568 1.47826 12.4301C3.38136 5.60766 9.69119 0.605352 16.6799 0.434358C24.1298 0.25177 30.6427 4.81935 32.8997 11.7953C34.9624 18.1714 33.1115 26.7182 24.8609 31.4075C24.9218 31.4916 24.9624 31.6046 25.0407 31.651C29.1284 34.1608 31.3216 37.8387 32.1194 42.5367C33.5757 51.1154 35.1597 59.6709 36.7234 68.2322C37.4283 72.1013 41.6494 75.4285 45.9371 75.4806C50.3149 75.5328 54.6955 75.4951 59.0732 75.498C59.4329 75.498 59.7927 75.498 60.3148 75.498C60.3148 76.1907 60.3148 76.8283 60.3148 77.463C60.3148 79.9207 60.3265 82.3784 60.3119 84.839C60.2974 87.2155 58.9862 88.5168 56.5986 88.5168C45.7051 88.5197 34.8116 88.5052 23.918 88.5313C22.0352 88.5371 20.9096 87.685 20.1728 86.004C14.9798 74.133 9.74631 62.2764 4.53889 50.4111C1.48116 43.4438 3.51771 36.3055 9.76372 31.9843C9.87976 31.9031 9.9842 31.8075 10.1902 31.6394V31.6365Z" fill="#3E1A51"/>
<path d="M75.5184 25.5993C78.9185 25.5993 82.1386 25.5703 85.3559 25.6109C87.0531 25.634 88.3237 26.8919 88.5239 28.6047C88.5616 28.9264 88.5471 29.2539 88.5471 29.5785C88.5471 41.3684 88.5471 53.1555 88.5471 64.9454C88.5471 67.7827 87.349 68.9884 84.5407 68.9884C71.9791 68.9884 59.4146 68.9884 46.8529 68.9884C44.1404 68.9884 42.9336 67.8001 42.9336 65.1106C42.9336 53.2134 42.9336 41.3163 42.9336 29.4191C42.9336 26.7991 44.1549 25.5964 46.7949 25.5935C49.7975 25.5935 52.7972 25.5935 55.9565 25.5935C55.9565 26.0456 55.9565 26.4282 55.9565 26.8107C55.9565 30.932 55.9507 35.0561 55.9565 39.1774C55.9594 41.722 57.2011 42.948 59.7656 42.948C63.7836 42.9509 67.8016 42.9538 71.8224 42.948C74.1984 42.9451 75.5068 41.6351 75.5155 39.2469C75.5271 35.1257 75.5184 31.0015 75.5184 26.8803C75.5184 26.4919 75.5184 26.1035 75.5184 25.5964V25.5993Z" fill="#F7C531"/>
<path d="M79.3459 75.5007C78.2899 80.9465 72.1397 85.6821 66.8945 85.1634V75.5413C67.1179 75.5268 67.292 75.5036 67.466 75.5036C71.4028 75.5036 75.3366 75.5036 79.3459 75.5036V75.5007Z" fill="#3E1A51"/>
<path d="M62.5371 36.372V25.6833H68.9253V36.372H62.5371Z" fill="#F7C531"/>
</g>
<defs>
<clipPath id="clip0_2013_529">
<rect width="87.6616" height="111.088" fill="white" transform="translate(0.892578 0.428345)"/>
</clipPath>
</defs>
</svg>
